<svg width="149" height="75" viewBox="0 0 149 75" fill="none" xmlns="http://www.w3.org/2000/svg">
<path d="M2.85875 13.9578V41H9.58067V13.9578H2.85875ZM12.5167 41C15.4785 41 18.041 40.4463 20.2044 39.3388C22.3678 38.2314 24.0418 36.6732 25.2265 34.6644C26.4112 32.6298 27.0036 30.2346 27.0036 27.4789C27.0036 24.6974 26.4112 22.3022 25.2265 20.2934C24.0418 18.2845 22.3678 16.7264 20.2044 15.6189C18.041 14.5115 15.4785 13.9578 12.5167 13.9578H7.1855V19.7525H12.2849C13.3151 19.7525 14.3066 19.8813 15.2595 20.1389C16.2382 20.3964 17.0881 20.8214 17.8092 21.4137C18.5561 22.0061 19.1485 22.8044 19.5863 23.8089C20.0241 24.7875 20.243 26.0109 20.243 27.4789C20.243 28.9469 20.0241 30.1831 19.5863 31.1875C19.1485 32.1662 18.5561 32.9517 17.8092 33.5441C17.0881 34.1364 16.2382 34.5614 15.2595 34.8189C14.3066 35.0765 13.3151 35.2052 12.2849 35.2052H7.1855V41H12.5167ZM35.518 41H49.155V35.6302H35.518V41ZM35.518 19.3276H49.155V13.9578H35.518V19.3276ZM35.518 29.4105H48.3823V24.1566H35.518V29.4105ZM31.1912 13.9578V41H37.4495V13.9578H31.1912ZM58.7178 35.7847H73.0116L72.5866 30.8012H59.1814L58.7178 35.7847ZM65.7874 23.8861L69.612 32.6555L69.3802 34.3167L72.6253 41H80.0426L65.7874 12.258L51.571 41H58.9496L62.3106 34.0463L62.0015 32.6169L65.7874 23.8861ZM101.535 13.9578V29.1787L82.8763 12.6057V41H89.1346V25.7791L107.832 42.3521V13.9578H101.535ZM130.886 26.1654L143.866 41H147.575L133.281 24.5815C132.508 23.6801 131.774 22.8302 131.079 22.0318C130.384 21.2334 130.036 20.3964 130.036 19.5208C130.036 18.5421 130.332 17.7566 130.924 17.1642C131.517 16.5719 132.341 16.2757 133.397 16.2757C134.118 16.2757 134.723 16.4173 135.213 16.7006C135.702 16.9839 136.075 17.3703 136.333 17.8596C136.616 18.3489 136.758 18.9284 136.758 19.598C136.758 20.4737 136.333 21.3751 135.483 22.3022C134.659 23.2036 133.526 24.0664 132.083 24.8906C131.568 25.1739 130.95 25.4958 130.229 25.8564C129.508 26.1912 128.774 26.5904 128.027 27.0539C127.28 27.5175 126.585 28.0712 125.941 28.7151C125.323 29.359 124.808 30.1058 124.396 30.9557C124.009 31.8056 123.816 32.7972 123.816 33.9304C123.816 35.4499 124.228 36.7763 125.052 37.9095C125.902 39.0169 126.984 39.8797 128.298 40.4978C129.637 41.0901 131.04 41.3863 132.508 41.3863C134.234 41.3863 135.818 41.0644 137.26 40.4205C138.702 39.7767 140.042 38.9268 141.278 37.8708C142.514 36.8149 143.673 35.6302 144.755 34.3167C145.836 32.9775 146.892 31.6382 147.922 30.299L145.527 28.7924C144.6 30.0543 143.634 31.2648 142.63 32.4238C141.651 33.5827 140.634 34.6258 139.578 35.5529C138.522 36.4543 137.415 37.1755 136.256 37.7163C135.122 38.2571 133.938 38.5276 132.702 38.5276C131.671 38.5276 130.731 38.3344 129.881 37.9481C129.032 37.5618 128.349 37.0081 127.834 36.2869C127.345 35.5658 127.1 34.7159 127.1 33.7372C127.1 32.7586 127.332 31.9215 127.795 31.2262C128.259 30.5308 128.851 29.9256 129.572 29.4105C130.319 28.8696 131.105 28.3932 131.929 27.9811C132.753 27.5433 133.513 27.1183 134.208 26.7063C135.11 26.1654 135.908 25.6246 136.603 25.0837C137.299 24.5171 137.891 23.9376 138.38 23.3453C138.87 22.7272 139.243 22.1091 139.501 21.491C139.758 20.8729 139.887 20.2419 139.887 19.598C139.887 18.5163 139.629 17.5248 139.114 16.6234C138.599 15.6962 137.852 14.9493 136.874 14.3827C135.921 13.8161 134.762 13.5328 133.397 13.5328C132.109 13.5328 130.963 13.7775 129.959 14.2668C128.98 14.7562 128.207 15.4515 127.641 16.3529C127.074 17.2544 126.791 18.3103 126.791 19.5208C126.791 20.4994 127.036 21.4008 127.525 22.225C128.04 23.0491 128.619 23.796 129.263 24.4656C129.933 25.1095 130.474 25.6761 130.886 26.1654Z" fill="#F5F5F5"/>
<path d="M2.159 63.0262L0.77398 63.9632C1.08629 64.5878 1.48686 65.1785 1.97568 65.7352C2.47809 66.2783 3.05518 66.7196 3.70696 67.0591C4.37231 67.385 5.09197 67.5479 5.86595 67.5479C6.43625 67.5479 6.9794 67.4529 7.49538 67.2628C8.02495 67.0727 8.49341 66.8011 8.90077 66.4481C9.3217 66.095 9.64759 65.6673 9.87842 65.1649C10.1228 64.6625 10.245 64.099 10.245 63.4743C10.245 62.8226 10.1296 62.2658 9.89879 61.8042C9.66796 61.3289 9.36923 60.9284 9.00261 60.6025C8.64956 60.263 8.26257 59.9846 7.84164 59.7674C7.4207 59.5501 7.02013 59.3736 6.63993 59.2378C5.81164 58.9527 5.15307 58.6675 4.66425 58.3824C4.18899 58.0836 3.84953 57.7713 3.64585 57.4454C3.44217 57.106 3.34033 56.7394 3.34033 56.3456C3.34033 55.8839 3.51685 55.4698 3.8699 55.1031C4.22294 54.7229 4.78645 54.5328 5.56043 54.5328C6.11715 54.5328 6.58562 54.6415 6.96582 54.8587C7.3596 55.076 7.69227 55.3543 7.96384 55.6938C8.23541 56.0333 8.45946 56.3795 8.63598 56.7326L10.1228 55.8771C9.892 55.3747 9.57291 54.8995 9.16555 54.4514C8.75819 53.9897 8.26257 53.6163 7.67869 53.3311C7.10839 53.0324 6.43625 52.883 5.66227 52.883C4.86114 52.883 4.14826 53.046 3.52364 53.3719C2.89903 53.6842 2.4102 54.1187 2.05716 54.6754C1.70411 55.2321 1.52759 55.8635 1.52759 56.5696C1.52759 57.2214 1.6498 57.7713 1.89421 58.2194C2.15221 58.6675 2.47809 59.0477 2.87187 59.36C3.26565 59.6588 3.6798 59.91 4.11431 60.1136C4.54883 60.3037 4.94261 60.4599 5.29565 60.5821C5.83879 60.7722 6.34799 60.9895 6.82324 61.2339C7.31207 61.4647 7.70585 61.7702 8.00458 62.1504C8.30331 62.5306 8.45267 63.0398 8.45267 63.678C8.45267 64.3298 8.22184 64.8661 7.76016 65.2871C7.29849 65.708 6.68746 65.9185 5.92705 65.9185C5.35675 65.9185 4.84756 65.7963 4.39946 65.5519C3.95137 65.3074 3.54401 64.968 3.17739 64.5335C2.82435 64.099 2.48488 63.5965 2.159 63.0262ZM18.491 60.2155C18.491 59.1428 18.7219 58.1855 19.1835 57.3436C19.6588 56.5017 20.3038 55.8364 21.1185 55.3476C21.9332 54.8587 22.8565 54.6143 23.8885 54.6143C24.9341 54.6143 25.8574 54.8587 26.6585 55.3476C27.4733 55.8364 28.1114 56.5017 28.5731 57.3436C29.0484 58.1855 29.286 59.1428 29.286 60.2155C29.286 61.2882 29.0484 62.2455 28.5731 63.0874C28.1114 63.9292 27.4733 64.5946 26.6585 65.0834C25.8574 65.5722 24.9341 65.8166 23.8885 65.8166C22.8565 65.8166 21.9332 65.5722 21.1185 65.0834C20.3038 64.5946 19.6588 63.9292 19.1835 63.0874C18.7219 62.2455 18.491 61.2882 18.491 60.2155ZM16.6579 60.2155C16.6579 61.2475 16.8344 62.2115 17.1875 63.1077C17.5541 64.0039 18.0633 64.7847 18.7151 65.45C19.3668 66.1018 20.134 66.6178 21.0166 66.998C21.8992 67.3646 22.8565 67.5479 23.8885 67.5479C24.9341 67.5479 25.8913 67.3646 26.7604 66.998C27.643 66.6178 28.4102 66.1018 29.0619 65.45C29.7137 64.7847 30.2161 64.0039 30.5692 63.1077C30.9358 62.2115 31.1191 61.2475 31.1191 60.2155C31.1191 59.1699 30.9358 58.2058 30.5692 57.3232C30.2161 56.4271 29.7137 55.6531 29.0619 55.0013C28.4102 54.3359 27.643 53.82 26.7604 53.4533C25.8913 53.0731 24.9341 52.883 23.8885 52.883C22.8565 52.883 21.8992 53.0731 21.0166 53.4533C20.134 53.82 19.3668 54.3359 18.7151 55.0013C18.0633 55.6531 17.5541 56.4271 17.1875 57.3232C16.8344 58.2058 16.6579 59.1699 16.6579 60.2155ZM40.2243 57.7102L44.8682 66.0203L49.5121 57.7102L50.5712 67.3442H52.3025L50.5712 52.3738L44.8682 62.7004L39.1652 52.3738L37.4339 67.3442H39.1652L40.2243 57.7102ZM60.3798 67.3442H67.5697V65.7148H60.3798V67.3442ZM60.3798 54.7162H67.5697V53.0867H60.3798V54.7162ZM60.3798 60.4192H67.1623V58.7897H60.3798V60.4192ZM59.4225 53.0867V67.3442H61.1538V53.0867H59.4225ZM87.1149 60.2155C87.1149 59.102 87.3593 58.1312 87.8481 57.3029C88.3505 56.461 89.0023 55.8024 89.8034 55.3272C90.6046 54.8519 91.4736 54.6143 92.4105 54.6143C93.0894 54.6143 93.7073 54.7026 94.264 54.8791C94.8343 55.0556 95.3503 55.3068 95.812 55.6327C96.2736 55.945 96.6674 56.3116 96.9933 56.7326V54.4514C96.3958 53.9218 95.7441 53.528 95.038 53.27C94.3319 53.012 93.4561 52.883 92.4105 52.883C91.4193 52.883 90.4891 53.0664 89.6201 53.433C88.7647 53.786 88.0111 54.2952 87.3593 54.9606C86.7075 55.6123 86.1983 56.3863 85.8317 57.2825C85.4651 58.1787 85.2818 59.1563 85.2818 60.2155C85.2818 61.2746 85.4651 62.2523 85.8317 63.1485C86.1983 64.0446 86.7075 64.8254 87.3593 65.4908C88.0111 66.1425 88.7647 66.6517 89.6201 67.0184C90.4891 67.3714 91.4193 67.5479 92.4105 67.5479C93.4561 67.5479 94.3319 67.4189 95.038 67.1609C95.7441 66.9029 96.3958 66.5092 96.9933 65.9796V63.6984C96.6674 64.1193 96.2736 64.4927 95.812 64.8186C95.3503 65.1309 94.8343 65.3753 94.264 65.5519C93.7073 65.7284 93.0894 65.8166 92.4105 65.8166C91.4736 65.8166 90.6046 65.579 89.8034 65.1038C89.0023 64.6285 88.3505 63.97 87.8481 63.1281C87.3593 62.2862 87.1149 61.3153 87.1149 60.2155ZM105.791 63.067H113.327L112.716 61.4376H106.402L105.791 63.067ZM109.518 56.3048L111.962 62.0486L112.125 62.4559L114.203 67.3442H116.138L109.518 52.3738L102.898 67.3442H104.833L106.952 62.3337L107.115 61.9671L109.518 56.3048ZM125.103 60.3173L129.991 67.3442H132.129L127.038 60.3173H125.103ZM122.557 53.0867V67.3442H124.288V53.0867H122.557ZM123.514 54.6143H126.426C127.038 54.6143 127.574 54.7229 128.036 54.9402C128.511 55.1575 128.877 55.4698 129.135 55.8771C129.407 56.2845 129.543 56.7801 129.543 57.364C129.543 57.9479 129.407 58.4435 129.135 58.8508C128.877 59.2582 128.511 59.5705 128.036 59.7878C127.574 60.005 127.038 60.1136 126.426 60.1136H123.514V61.6412H126.426C127.35 61.6412 128.171 61.4715 128.891 61.132C129.624 60.779 130.201 60.2834 130.622 59.6452C131.057 58.9934 131.274 58.233 131.274 57.364C131.274 56.4814 131.057 55.721 130.622 55.0828C130.201 54.4446 129.624 53.9557 128.891 53.6163C128.171 53.2632 127.35 53.0867 126.426 53.0867H123.514V54.6143ZM139.168 63.0262L137.783 63.9632C138.095 64.5878 138.496 65.1785 138.985 65.7352C139.487 66.2783 140.064 66.7196 140.716 67.0591C141.381 67.385 142.101 67.5479 142.875 67.5479C143.445 67.5479 143.988 67.4529 144.504 67.2628C145.034 67.0727 145.502 66.8011 145.91 66.4481C146.331 66.095 146.657 65.6673 146.887 65.1649C147.132 64.6625 147.254 64.099 147.254 63.4743C147.254 62.8226 147.139 62.2658 146.908 61.8042C146.677 61.3289 146.378 60.9284 146.012 60.6025C145.659 60.263 145.272 59.9846 144.851 59.7674C144.43 59.5501 144.029 59.3736 143.649 59.2378C142.821 58.9527 142.162 58.6675 141.673 58.3824C141.198 58.0836 140.859 57.7713 140.655 57.4454C140.451 57.106 140.349 56.7394 140.349 56.3456C140.349 55.8839 140.526 55.4698 140.879 55.1031C141.232 54.7229 141.795 54.5328 142.569 54.5328C143.126 54.5328 143.595 54.6415 143.975 54.8587C144.369 55.076 144.701 55.3543 144.973 55.6938C145.244 56.0333 145.468 56.3795 145.645 56.7326L147.132 55.8771C146.901 55.3747 146.582 54.8995 146.175 54.4514C145.767 53.9897 145.272 53.6163 144.688 53.3311C144.117 53.0324 143.445 52.883 142.671 52.883C141.87 52.883 141.157 53.046 140.533 53.3719C139.908 53.6842 139.419 54.1187 139.066 54.6754C138.713 55.2321 138.537 55.8635 138.537 56.5696C138.537 57.2214 138.659 57.7713 138.903 58.2194C139.161 58.6675 139.487 59.0477 139.881 59.36C140.275 59.6588 140.689 59.91 141.123 60.1136C141.558 60.3037 141.952 60.4599 142.305 60.5821C142.848 60.7722 143.357 60.9895 143.832 61.2339C144.321 61.4647 144.715 61.7702 145.014 62.1504C145.312 62.5306 145.462 63.0398 145.462 63.678C145.462 64.3298 145.231 64.8661 144.769 65.2871C144.308 65.708 143.696 65.9185 142.936 65.9185C142.366 65.9185 141.857 65.7963 141.408 65.5519C140.96 65.3074 140.553 64.968 140.186 64.5335C139.833 64.099 139.494 63.5965 139.168 63.0262Z" fill="#F5F5F5"/>
</svg>
